<?xml version="1.0" encoding="utf-8"?>
<!-- Generator: Adobe Illustrator 28.0.0, SVG Export Plug-In . SVG Version: 6.00 Build 0)  -->
<svg version="1.1" id="Layer_1" xmlns="http://www.w3.org/2000/svg" xmlns:xlink="http://www.w3.org/1999/xlink" x="0px" y="0px"
	 viewBox="0 0 255.87 255.87" style="enable-background:new 0 0 255.87 255.87;" xml:space="preserve">
<style type="text/css">
	.st0{fill:#00062F;}
	.st1{clip-path:url(#SVGID_00000109027542159081482750000018425831436213522866_);fill:#2B2560;}
	.st2{clip-path:url(#SVGID_00000109027542159081482750000018425831436213522866_);fill:#00062F;}
	.st3{clip-path:url(#SVGID_00000120517762976977803670000005906802245636522881_);fill:#BDBAD7;}
	.st4{clip-path:url(#SVGID_00000120517762976977803670000005906802245636522881_);fill:#F47B5E;}
	.st5{clip-path:url(#SVGID_00000171680067216659935990000014411529034118407346_);fill:#F47B5E;}
	.st6{clip-path:url(#SVGID_00000027582373436266321880000004386064929786406568_);fill:#2B2560;}
	.st7{clip-path:url(#SVGID_00000027582373436266321880000004386064929786406568_);fill:#00062F;}
	.st8{clip-path:url(#SVGID_00000039131542933486049110000003542792033620113306_);fill:#F47B5E;}
	.st9{clip-path:url(#SVGID_00000023973149133672347960000013390678974711015298_);fill:#BDBAD7;}
	.st10{clip-path:url(#SVGID_00000023973149133672347960000013390678974711015298_);fill:#F47B5E;}
	.st11{clip-path:url(#SVGID_00000176759897360969548940000009389304926911748488_);fill:#2B2560;}
	.st12{clip-path:url(#SVGID_00000176759897360969548940000009389304926911748488_);fill:#00062F;}
	.st13{clip-path:url(#SVGID_00000183208384097963190420000017271745515379326652_);fill:#BDBAD7;}
	.st14{clip-path:url(#SVGID_00000183208384097963190420000017271745515379326652_);fill:#F47B5E;}
	.st15{clip-path:url(#SVGID_00000092446546504960806790000018041991533231588231_);fill:#F47B5E;}
	.st16{clip-path:url(#SVGID_00000018953339536634773710000000094658407721379726_);fill:#00062F;}
	.st17{clip-path:url(#SVGID_00000170239736516628257890000000681365775307947942_);fill:#EF4E6E;}
	.st18{clip-path:url(#SVGID_00000170239736516628257890000000681365775307947942_);fill:#3A3A3C;}
	.st19{clip-path:url(#SVGID_00000170239736516628257890000000681365775307947942_);fill:#F3F1EA;}
	.st20{clip-path:url(#SVGID_00000170239736516628257890000000681365775307947942_);fill:#E42029;}
	.st21{clip-path:url(#SVGID_00000170239736516628257890000000681365775307947942_);fill:#FFF0C8;}
	
		.st22{clip-path:url(#SVGID_00000170239736516628257890000000681365775307947942_);fill:none;stroke:#231F20;stroke-width:0.25;stroke-miterlimit:10;}
	.st23{clip-path:url(#SVGID_00000001623810378916145520000012719518770023321484_);fill:#BDBAD7;}
	.st24{clip-path:url(#SVGID_00000064332888809129540500000006911382214066333827_);fill:#F47B5E;}
	.st25{clip-path:url(#SVGID_00000163055725767415481280000011269123631014166170_);fill:#F47B5E;}
	.st26{clip-path:url(#SVGID_00000179636147152755883380000010085646846967320746_);fill:#BDBAD7;}
	.st27{clip-path:url(#SVGID_00000179636147152755883380000010085646846967320746_);fill:#F47B5E;}
	.st28{clip-path:url(#SVGID_00000026863109919273331230000009613995947228392843_);fill:#7C77AD;}
	.st29{clip-path:url(#SVGID_00000121259594495845558820000000065835915998280583_);fill:#F47B5E;}
	.st30{clip-path:url(#SVGID_00000153676144765591482150000016533951398749775790_);fill:#2B2560;}
	.st31{clip-path:url(#SVGID_00000153676144765591482150000016533951398749775790_);fill:#7C77AD;}
	.st32{clip-path:url(#SVGID_00000063631667637120899800000006045347234081937321_);fill:#F47B5E;}
	.st33{clip-path:url(#SVGID_00000086662364918643755110000013631377948144190370_);fill:#2B2560;}
	.st34{clip-path:url(#SVGID_00000086662364918643755110000013631377948144190370_);fill:#7C77AD;}
	.st35{clip-path:url(#SVGID_00000083791158688076448110000012916489551573128833_);fill:#F47B5E;}
	.st36{clip-path:url(#SVGID_00000054237829107285981420000013536873228564675994_);fill:#2B2560;}
	.st37{clip-path:url(#SVGID_00000054237829107285981420000013536873228564675994_);fill:#7C77AD;}
	.st38{clip-path:url(#SVGID_00000044149502168680951610000016452542536807576489_);fill:#F47B5E;}
	.st39{clip-path:url(#SVGID_00000147186124912806426760000015237821010937125274_);fill:#2B2560;}
	.st40{clip-path:url(#SVGID_00000147186124912806426760000015237821010937125274_);fill:#7C77AD;}
	.st41{clip-path:url(#SVGID_00000145021661111790925360000000060479579844509589_);fill:#F47B5E;}
	.st42{clip-path:url(#SVGID_00000171719383707905307190000001394714245242473887_);fill:#2B2560;}
	.st43{clip-path:url(#SVGID_00000171719383707905307190000001394714245242473887_);fill:#7C77AD;}
	.st44{clip-path:url(#SVGID_00000118376440239098994440000008860369089588631708_);fill:#F47B5E;}
</style>
<path class="st0" d="M255.87,127.94c0,70.66-57.28,127.94-127.94,127.94C57.27,255.87,0,198.6,0,127.94S57.27,0,127.94,0
	C198.59,0,255.87,57.27,255.87,127.94"/>
<g>
	<defs>
		<path id="SVGID_00000057846089330270807750000005582068572029982611_" d="M12.53,127.94c0,63.73,51.66,115.4,115.4,115.4
			s115.41-51.67,115.41-115.4c0-63.75-51.67-115.41-115.41-115.41S12.53,64.19,12.53,127.94"/>
	</defs>
	<clipPath id="SVGID_00000095340481926236770780000009519945793899955087_">
		<use xlink:href="#SVGID_00000057846089330270807750000005582068572029982611_"  style="overflow:visible;"/>
	</clipPath>
	<path style="clip-path:url(#SVGID_00000095340481926236770780000009519945793899955087_);fill:#F47B5E;" d="M-29.14,266.9
		c4.49-2.64,8.11-6.37,11.42-10.36c3.18-3.85,6.89-7.23,10.89-10.07c3.01-2.11,5.65-4.44,7.94-7.22c1.94-2.37,2.9-5.23,3.34-8.24
		c0.25-1.74-0.35-3.42-1.21-4.87c-0.98-1.63-2.04-3.29-3.5-4.53c-4.98-4.29-10.27-13.35-13.7-19.08c-3.02-5.05-4.47-8.44-8.68-10.97
		c-3.06-1.82-4.76-1.52-5.29-1.38c-3.38,0.83-4.84,5.47-5.85,8.84c-1.32,4.41-0.81,5.85-1.66,17.25c-0.37,4.98-0.53,9.97-1.08,14.94
		c-0.25,2.27-0.27,4.58-0.39,6.87c-0.46,7.58-0.54,15.16-0.44,22.76c0.01,1.44,0.26,2.87,0.83,4.11
		C-35.1,268.02-32.78,269.03-29.14,266.9 M-3.27,230.14c0.02-0.13,0.18-1.06,1.06-1.47c0.61-0.29,1.26-0.19,1.71,0.05
		c0.46,0.23,0.68,0.61,0.86,0.92c0.21,0.36,0.46,0.76,0.39,1.28c-0.05,0.47-0.35,0.9-0.82,1.27c-0.85,0.68-1.79,0.73-2.53-0.19
		C-2.78,231.77-3.42,231.09-3.27,230.14 M-28.88,212.18c1.17-4.37,2.09-7.61,4.48-8.26c1.52-0.39,3.19,0.36,3.42,0.46
		c0.36,0.18,1.49,0.78,3.22,3.29c1.18,1.73,0.89,1.77,2.01,3.51c1.1,1.72,1.64,1.85,4.6,5.79c0.33,0.45,0.68,0.9,1.03,1.32
		c1.79,2.22,2.94,4.94,2.92,7.82c-0.02,3.98-2.25,7.26-6.81,6.84c-1.13-0.11-2.29-0.41-3.34-0.95c-2.26-1.17-4.43-1.19-6.9-0.28
		c-3.47,1.31-4.95,0.55-5.46-3.46C-30.89,218.99-28.88,212.18-28.88,212.18 M-32.81,251.25c2.01-5.36,8.47-17.47,12.54-16.3
		c0.5,0.15,1.37,0.61,1.58,1.36c0.23,0.87-0.55,1.5-1.62,3.6c-0.66,1.27-1.49,2.87-1.01,3.38c0.35,0.38,1.34,0.04,2.44-0.46
		c4.71-2.16,5.58-4.78,9.42-6.29c1.89-0.74,4.39-1.16,4.72-0.51c0.16,0.3-0.19,0.75-0.42,1.08c-1.13,1.73-2.57,3.21-4.14,4.5
		c-5.3,4.37-10.27,9.08-14.91,14.16c-1.3,1.42-2.74,2.68-4.5,3.54c-2.38,1.16-3.92,0.45-4.52-2.17
		C-33.88,254.38-33.06,251.9-32.81,251.25"/>
	<path style="clip-path:url(#SVGID_00000095340481926236770780000009519945793899955087_);fill:#BDBAD7;" d="M5.84,123.26
		c0.79-0.58,1.33-1.25,1.68-1.97c1.07-2.24,0.39-4.97-1.1-6.67c-0.3-0.33-1.68-1.9-3.6-1.95c-1.25-0.03-2.66,0.58-2.82,0.65
		c0,0-0.35,0.17-0.64,0.32c-3.36,1.79-3.42,6.47-1.94,8.81C-0.85,125.18,2.86,125.43,5.84,123.26"/>
	<path style="clip-path:url(#SVGID_00000095340481926236770780000009519945793899955087_);fill:#BDBAD7;" d="M213.29,239.22
		c2.64-4.93,4.1-10.38,4.63-16.05c0.52-5.65-0.38-11.15-1.89-16.47c-2.81-10.02-7.39-19.33-12.29-28.49
		c-5.39-10.07-12.12-19.32-18.06-29.06c-4.08-6.69-7.56-13.73-9.14-21.41c-2.24-10.87-1.08-21.38,5.84-30.58
		c4.73-6.29,11.14-10.31,18.63-12.57c6.58-2.01,13.38-2.69,20.22-3.18c10.56-0.75,21.14-1.38,31.41-4.29
		c9.75-2.77,19.06-6.44,26.68-13.38c6-5.44,9.27-12.24,9.65-20.39c0.68-14.61-4.58-26.93-14.79-37.04
		c-6.89-6.82-15.63-10.16-25.27-11.3c-5.54-0.66-10.88-0.2-16.1,1.63c-5.74,2.03-10.11,6.01-14.13,10.4
		c-4.3,4.72-7.24,10.45-11.37,15.32c-5.96,7.04-8.39,11.01-12.96,14.72c-5.93,4.81-11.52,7.19-15.34,8.79
		c-4.47,1.87-6.22,2.36-19.43,5.36c-9.03,2.04-18.16,3.74-26.33,8.56c-4.84,2.85-8.17,7.01-10.93,11.65
		c-3.74,6.32-4.96,13.33-4.32,20.58c0.33,3.76,1.65,7.31,3.06,10.81c2.68,6.64,5.78,13.09,7.69,20.02c1.33,4.77,2.04,9.65,1.3,14.52
		c-0.97,6.45-4.05,11.97-8.56,16.7c-5,5.26-10.99,9.25-16.9,13.34c-4.95,3.44-9.86,6.98-14.08,11.25
		c-8.81,8.88-15.57,19.04-18.11,31.56c-1.05,5.15-0.87,10.31-0.25,15.51c0.49,4.18,1.36,8.2,2.76,12.17
		c1.95,5.55,4.88,10.43,8.64,14.94c4.53,5.43,10.09,9.37,16.53,12.13c4.92,2.11,10.06,3.58,15.3,4.73
		c10.42,2.27,20.97,3.18,31.61,2.93c14.41-0.33,28.3-2.99,41.23-9.61C198.9,257.54,207.6,249.86,213.29,239.22 M247.13,65.93
		c-0.43,2.35-1.49,3.88-4.12,4.37c-2.52,0.47-5.04,0.62-7.46,0.07c-5.84-1.31-11.27-0.8-16.3,2.6c-1.25,0.85-2.72,1.16-4.14,1.56
		c-1.64,0.44-2.87-0.81-2.52-2.53c0.22-1.06,0.67-2.07,1.36-2.94c3.72-4.78,7.38-9.61,11.21-14.31c2.32-2.84,5.26-4.81,9.02-5.32
		h0.19c1.96-0.05,3.9-0.05,5.7,0.98C244.95,53.21,248.26,59.62,247.13,65.93 M276.51,20.71c1.58,1.27,1.86,3.05,1.97,3.8
		c0.1,0.59,0.34,2.56-0.82,4.49c-1.29,2.18-3.8,3.38-6.18,2.89c-2.58-0.53-4.02-2.65-4.29-5.23c-0.17-1.5,0.09-2.91,0.82-4.11
		c0.59-0.95,1.32-1.48,1.71-1.75c0.51-0.36,1.49-1.08,2.92-1.22C273.02,19.56,274.89,19.42,276.51,20.71 M266.77,10.18
		c0.13-0.13,0.26-0.21,0.28-0.22c0.25-0.19,0.64-0.47,0.9-0.57c0.59-0.25,1.38,0.09,1.85,0.46c0.79,0.64,0.86,1.62,0.9,2.08
		c0.03,0.41,0.11,1.43-0.61,2.26c-0.34,0.39-0.8,0.67-1.37,0.82c-1.29,0.34-2.27-0.37-2.98-1.67
		C264.86,11.74,265.89,11.04,266.77,10.18 M180.97,71.03c0.97-1.55,2.18-2.92,3.54-4.11c3.29-2.81,6.64-5.54,10.01-8.25
		c1.03-0.82,1.95-1.66,2.35-2.96v-0.19c-1.1-1.49-2.72-1.07-4.12-0.94c-2.1,0.19-4.14,0.96-6.28,0.92
		c-0.87-0.02-1.92,0.38-2.39-0.96c-0.41-1.18,0.11-1.92,0.8-2.77c2.32-2.82,5.69-3.76,8.86-5.09c4.32-1.84,8.63-3.7,12.38-6.66
		c4.56-3.61,6.86-8.83,9.74-13.59c3.35-5.54,6.51-11.15,11.85-15.08c5.3-3.89,11.2-6.01,17.85-5.48c5,0.39,9.22,2.4,12.39,6.46
		c3.09,3.96,2.33,8.59,2.03,12.95c-0.29,4.29,0.49,7.26,4.05,9.41c1.89,1.15,3.88,2.07,5.7,3.35c3.89,2.76,6.33,8.12,4.18,13.58
		c-1.77,4.5-5.06,7.05-9.3,8.57c-3.37,1.21-6.72,0.91-9.82-1.13c-2.13-1.4-3.73-3.24-4.91-5.49c-1.5-2.91-2.84-5.92-4.69-8.65
		c-4.2-6.22-11.12-7.45-17.15-2.4c-2.28,1.91-4.16,4.13-5.99,6.37c-4.05,4.94-7.49,10.36-11.82,15.09
		c-4.69,5.11-9.57,9.94-16.09,12.78c-2.92,1.27-5.85,2.36-9.05,2.3c-2.11-0.04-3.92-0.83-4.92-2.91
		C179.26,74.23,179.98,72.61,180.97,71.03 M203.22,213.93c0.19-0.85,0.75-1.6,1.54-2.14c0.74-0.52,1.68-0.38,2.33,0.19
		c0.92,0.83,0.97,1.93,0.62,3.13c-0.12,0.42-0.29,0.69-0.33,0.76c-0.22,0.37-0.63,1.06-1.4,1.28c-0.89,0.26-1.82-0.23-2.3-0.84
		c-0.31-0.38-0.41-0.8-0.46-1.01C203.19,215.17,203.06,214.62,203.22,213.93 M129.91,94.59c-1.48-4.34-2.57-8.83-1.31-13.33
		c0.7-2.51,1.72-4.79,3.03-6.86c3.07-4.83,6.96-7.33,9.08-8.67c5.43-3.43,10.81-4.56,13.55-4.72c1.78-0.1,3.88,0,3.88,0
		c0.42,0.02,2.7,0.13,4.16,0.39c3.93,0.73,6.92,3.35,7.44,4.15c5.6,8.66,6.84,17.97,3.78,27.86c-1.85,5.96-5.07,11.21-8.27,16.48
		c-5.43,8.94-8.23,18.45-6.94,29.06c0.69,5.68,3.01,10.34,7.15,14.1c4.05,3.68,8.71,6.55,13.34,9.44
		c5.71,3.54,11.05,7.54,15.09,12.98c3.98,5.36,5.74,11.23,3.19,17.84c-1.05,2.67-2.73,3.86-5.52,3.94
		c-5.49,0.15-10.03-1.98-13.94-5.7c-3.44-3.26-6.29-7.05-9.59-10.43c-0.91-0.92-1.91-1.69-2.99-2.3c-2.07-1.19-4.05-0.35-5.09,1.93
		c-1.14,2.5-1.47,5.2-1.97,7.85c-0.41,2.23-0.79,4.44-1.91,6.5c-1.46,2.66-4.03,3.52-6.87,1.7c-3.56-2.28-5.27-5.99-6.31-9.97
		c-1.14-4.43-1.42-8.96-1.66-13.54c-0.27-5.06-0.06-10.09,0.15-15.12c0.32-7.26,1.23-14.49,0.94-21.79
		c-0.32-8.43-1.86-16.52-5.06-24.37C134.87,106.19,131.95,100.57,129.91,94.59 M171.07,203.31c-0.31,0.34-0.73,0.6-1.23,0.76
		c-1.14,0.36-3.02-0.06-3.74-1.31c-0.12-0.23-0.41-0.77-0.37-1.5c0.09-1.55,1.57-2.93,3.15-3.03c0.27-0.01,1.41-0.04,2.21,0.81
		c0.66,0.68,0.7,1.54,0.73,1.94C171.82,201.29,171.88,202.43,171.07,203.31 M181.18,259.95c-3.49,2.82-7.46,1.97-11,0.36
		c-4.93-2.24-8.03-7.39-6.73-12.79l0.09-0.17c1.73-3.95,4.62-5.88,8.12-5.03c1.8,0.45,3.6,0.98,5.3,2.08
		c2.81,1.79,5.12,3.94,6.37,6.92C184.66,254.5,184.01,257.66,181.18,259.95 M182.71,239.36c-4.74-1.17-9.04-3.28-13.52-5.01
		c-4.07-1.58-8.06-3.25-12.57-3.16c-2.74,0.06-4.85,1.07-6.25,2.59c-2.07,2.28-1.9,5.61-1.86,6.87c0.11,2.94,1.18,3.63,1.05,7.05
		c-0.11,2.24-0.63,3.38-0.89,3.88c-0.78,1.48-1.85,2.3-2.83,3.03c-2.37,1.78-4.77,2.46-6.01,2.75c-2.82,0.65-5.73,0.52-8.74-0.27
		c-4.25-1.13-8.07-3.3-11.57-5.89c-6.17-4.56-12.88-7.24-20.63-7.28c-4.35-0.01-8.17-1.94-10.94-5.12
		c-5.89-6.78-7.3-15.12-5.37-23.46c1.85-7.93,5.28-15.5,9.84-22.41c4.55-6.91,10.48-12.65,16.31-18.44
		c3.3-3.26,6.96-6.19,11.17-8.24c1.44-0.7,3.03-1.28,4.69-1c3.42,0.55,4.8,3.03,5.49,6.07c0.67,2.9,0.74,5.89,0.74,8.83
		c0.02,5.83,0.74,11.51,2.42,17.08c2.49,8.22,7.34,14.22,16.1,16.04c5.64,1.17,11.36,0.69,17.08-0.09c5.14-0.7,10.25-1.68,15.5-1.65
		c8.94,0.04,17.89,8,15.35,19.08C195.39,239.01,188.35,240.77,182.71,239.36"/>
	<path style="clip-path:url(#SVGID_00000095340481926236770780000009519945793899955087_);fill:#BDBAD7;" d="M31.81,233.35
		c-1.3-0.33-2.85,0.04-3.8,1.21c-0.76,0.93-1.01,2.22-0.64,3.37c0.07,0.23,0.35,0.95,1.03,1.54c1.12,0.97,3.67,0.77,4.91-0.39
		c0.97-0.9,1.44-2.55,0.79-3.93C33.49,233.84,32.15,233.43,31.81,233.35"/>
	<path style="clip-path:url(#SVGID_00000095340481926236770780000009519945793899955087_);fill:#BDBAD7;" d="M225.7,233.99
		c-0.64-0.58-1.58-0.71-2.32-0.2c-0.8,0.55-1.34,1.29-1.54,2.14c-0.16,0.69-0.04,1.25-0.02,1.37c0.05,0.21,0.15,0.63,0.46,1.01
		c0.48,0.61,1.42,1.1,2.32,0.84c0.77-0.22,1.17-0.91,1.4-1.28c0.04-0.07,0.21-0.34,0.33-0.76
		C226.68,235.92,226.63,234.82,225.7,233.99"/>
	<path style="clip-path:url(#SVGID_00000095340481926236770780000009519945793899955087_);fill:#BDBAD7;" d="M81.38,172.1
		c4.28-5.95,2.3-11.07-4.29-13.32c-2.34-0.8-4.77-1.21-7.26-1.19c-4.39,0.03-8.8-0.25-13.16,0.44c-4.62,0.73-9.29,1.21-13.94,1.44
		c-7.29,0.37-14.46-0.59-20.39-5.44c-1.44-1.17-3.35-4.01-7.24-9.6c-4.25-6.1-4.77-7.74-7.43-9.77C6.6,133.83,2,130.32-3.39,130.9
		c-8.48,0.92-13.09,11.3-15.05,15.74c-3.45,7.74-3.33,14.63-3.2,17.64c0.25,5.29,1.26,10.42,3.34,15.32
		c3.97,9.38,9.81,17.45,17.49,24.12c7.66,6.65,16.42,11.19,26.48,12.96c7.33,1.29,14.06-0.32,20.44-4.09
		c8.11-4.78,14.23-11.51,19.63-19.06c3.72-5.22,7.81-10.18,11.35-15.53C78.44,175.97,79.96,174.08,81.38,172.1 M16.24,161.53
		c0.25-0.83,0.93-1.67,1.96-1.96c1.23-0.34,2.21,0.3,2.36,0.39c0.33,0.16,0.91,0.51,1.34,1.2c0.16,0.25,0.44,0.68,0.48,1.3
		c0.04,0.52-0.1,1.07-0.43,1.63c-0.57,0.98-1.05,1.8-2.38,1.78c-1.87-0.03-2.81-0.74-3.34-2.77
		C16.14,162.71,16.06,162.17,16.24,161.53 M17.42,208.98c-0.9-0.1-1.86-0.41-2.77-0.67c-5.58-1.6-9.74-5.16-13.29-9.51
		c-1.84-2.25-3.24-4.81-3.57-7.83c-0.19-1.78,0.44-2.5,0.66-2.73c0.65-0.65,1.56-0.75,2.09-0.8c1.49-0.14,2.68,0.38,3.14,0.6
		c4.45,2.08,10.95,8.98,11.76,9.84c1.81,1.95,3.45,4.11,4.49,7.06C20.82,207.5,19.92,209.25,17.42,208.98 M45.27,201.92
		c-5.31,2.99-10.89,3.38-16.46,0.44c-3.51-1.87-6.22-4.63-8.43-7.86c-4.31-6.33-10.01-10.7-17.5-12.53
		c-3.16-0.77-6.31-1.63-8.99-3.4c-6.84-4.53-9.12-11.3-7.08-19.59c0.44-1.76,1.13-4.88,3.54-8.04c2.73-3.6,7.16-6.63,11.36-6.49
		c0.76,0.02,2.33,0.1,3.45,1.18c1.16,1.12,1.26,2.75,1.3,3.33c0.37,5.16,2.9,13.55,4.91,17.45c5.31,10.3,13.53,12.06,23.33,10.24
		c4.01-0.74,7.96-1.89,12.18-1.05c4.69,0.93,8.74,4.3,8.56,9.87C55.2,192.76,51.61,198.36,45.27,201.92 M75.31,171.53
		c-1.25,2.07-2.81,3.97-4.69,5.49c-3.51,2.85-7.71,2.36-10.37-1.39c-1.97-2.77-4.26-4.85-7.67-5.73c-1.56-0.39-3.35-1.24-3.31-3.28
		c0.04-1.55,2.25-2.65,3.29-3.16c2.21-1.09,4.25-1.14,5.11-1.15c7.61-0.13,11.42-0.19,13.74,1.56
		C71.69,164.09,77.45,167.97,75.31,171.53"/>
	<path style="clip-path:url(#SVGID_00000095340481926236770780000009519945793899955087_);fill:#F47B5E;" d="M-3.4,155.25
		c-2.51,0.47-3.65,3.25-3.82,4.98c-0.03,0.25-0.14,1.27,0.29,2.48c0.8,2.29,2.25,3.41,4.32,3.33c1.96-0.06,4-1.56,4.72-3.72
		c0.05-0.16,0.92-2.89-0.92-5.13C1.09,157.05-0.85,154.76-3.4,155.25"/>
	<path style="clip-path:url(#SVGID_00000095340481926236770780000009519945793899955087_);fill:#BDBAD7;" d="M223.36-17.09
		c3.58,2.42,7.63,3.25,11.79,3.47c7.35,0.37,14.67-0.54,21.99-0.91c7.71-0.37,15.41-0.02,22.57,3.33c5.15,2.42,9.85,5.62,14.54,8.81
		c8.84,6.03,18.4,10.59,28.68,13.46c4.2,1.17,8.57,1.91,12.93,2.52c4.59,0.64,9.19,1.02,13.74,0.64
		c11.38-0.96,21.82-4.21,29.04-13.89c2.75-3.68,4.65-7.8,4.53-12.55c-0.11-4.4-2-7.98-5.3-10.79c-6.69-5.68-14.89-7.87-23.16-9.81
		c-8.2-1.9-16.57-3-24.93-3.88c-5.6-0.61-11.23-0.84-16.88-1.08c-11.65-0.47-23.32-0.43-34.95-1.49c-9.61-0.89-14.72-1.3-21.98-1.43
		c-4.24-0.07-7.1,0.06-13.83-0.16c-1.54-0.05-2.35-0.09-3.65-0.02c-5.96,0.31-10.06,2.24-11.17,2.78c-1.59,0.78-2.91,1.42-4.36,2.76
		c-2.12,1.94-3.6,4.48-4.43,7.43C217.41-23.93,219.68-19.58,223.36-17.09 M309.56-2.58c-1.72,1.55-3.72,1.58-5.68,0.75
		c-2.05-0.89-3.38-2.41-3.37-4.88c0.01-0.6,0.01-1.98,0.97-3.3c1.18-1.61,2.96-1.94,3.37-2.01c0.2-0.03,0.83-0.12,1.57,0
		c2.41,0.38,5.49,2.81,5.3,5.7C311.6-4.33,309.96-2.95,309.56-2.58 M331.54-31.46c1.48-1.27,3.22-1.32,4.14-1.36
		c2.54-0.09,4.39,1.07,5.1,1.57c0.59,0.42,2.32,1.65,2.67,3.49c0.16,0.82,0.02,1.6,0.02,1.6c-0.32,1.98-1.75,2.98-3.85,3.41
		c-3.3,0.7-5.91-0.52-8.23-2.45c-1.05-0.87-1.57-1.81-1.63-2.76C329.63-29.81,331.18-31.15,331.54-31.46 M317.03-31.25
		c0.79-1.23,2.24-1.31,2.36-1.31c1.65-0.09,3.15,1.28,3.34,2.69c0.1,0.65-0.12,1.18-0.18,1.33c-0.3,0.7-0.9,1.22-1.61,1.57
		c-1.02,0.52-2.2,0.5-3.12-0.36c-0.27-0.25-1.15-0.98-1.23-2.21C316.57-29.81,316.57-30.53,317.03-31.25 M283.88-25.79
		c0.29-1.34,1.72-2.09,2.28-2.39c1.31-0.67,2.53-0.7,2.98-0.71c5.26-0.1,8.04,0.83,8.04,0.83c6.19,2.03,12.58,3.35,18.85,5.07
		c9.94,2.72,16.6,4.08,24.93,3.95c3.94-0.05,7.86-0.35,11.79,0.33c2.97,0.52,5.85,1.05,8.46,2.74c3.68,2.38,5.35,5.93,2.53,10.83
		c-1.16,2.01-2.94,3.41-4.93,4.49c-4.95,2.7-10.3,4.25-15.88,4.93c-5.11,0.62-10.13-0.11-15.13-1.12c-2.57-0.52-5.13-0.94-7.45-2.22
		c-3.07-1.7-4.08-4.24-2.93-7.45c0.31-0.89,0.79-1.7,1.15-2.56c0.97-2.28,0.51-3.34-1.75-4.52c-1.74-0.92-3.64-1.21-5.52-1.53
		c-5.95-1.02-11.99-1.65-17.85-3.21c-3.3-0.87-6.69-1.79-8.84-4.87C283.96-24.14,283.73-25.02,283.88-25.79 M230.43-31.06
		c3.78-4.42,8.86-4.88,14.14-4.67c0.71,0.02,1.44,0.15,2.17,0.17c5.1,0.06,10.21-0.01,15.31,0.23c3.47,0.17,7.04,0.89,9.15,3.94
		c1.57,2.27,3.46,4.15,5.4,6.01c1.26,1.19,1.63,2.64,1.3,4.13c-0.35,1.57-1.8,2.03-3.29,2.18h-0.2c-2.19-0.15-4.12-1.09-6.08-1.96
		c-4.33-1.95-8.76-2.75-13.56-2.04c-3.58,0.54-7.07,1.45-10.58,2.26c-3.61,0.82-7.17,1.59-10.81,0.17
		C229.39-22.18,227.08-27.11,230.43-31.06"/>
	<path style="clip-path:url(#SVGID_00000095340481926236770780000009519945793899955087_);fill:#F47B5E;" d="M119.7,143.27
		c3.7-2.48,3.37-8.71,1.21-11.79c-2.13-3.02-5.09-3.64-8.47-3.33h-0.19c-2.82,0.97-5.14,2.35-6.12,5.49
		c-1.54,4.91,1.43,9.89,6.12,11.01C114.95,145.3,117.42,144.79,119.7,143.27"/>
	<path style="clip-path:url(#SVGID_00000095340481926236770780000009519945793899955087_);fill:#BDBAD7;" d="M207.06,157.95
		c0.51-0.16,0.92-0.42,1.23-0.76c0.82-0.87,0.76-2.01,0.75-2.34c-0.02-0.41-0.07-1.26-0.73-1.95c-0.81-0.84-1.94-0.81-2.22-0.8
		c-1.58,0.1-3.06,1.48-3.14,3.03c-0.04,0.73,0.25,1.28,0.37,1.49C204.04,157.89,205.92,158.3,207.06,157.95"/>
	<path style="clip-path:url(#SVGID_00000095340481926236770780000009519945793899955087_);fill:#BDBAD7;" d="M92.02,156.19
		c2.27-0.29,4.25-2.84,4.55-5.06c0.42-3.19-2.77-6.4-6.11-6.09h-0.19c-1.14,0.34-2.23,0.83-3.14,1.59c-1.75,1.46-2.26,4.24-1.4,6.27
		C86.84,155.51,89.21,156.54,92.02,156.19"/>
	<path style="clip-path:url(#SVGID_00000095340481926236770780000009519945793899955087_);fill:#F47B5E;" d="M101.06,231.81
		c-1.26,0.65-2.09,2.05-2.02,3.41c0.01,0.17,0.05,0.8,0.45,1.49c0.99,1.77,3.93,3.46,5.89,2.16c1.78-1.18,2-4.33,0.39-6.09
		C104.68,231.57,102.69,230.96,101.06,231.81"/>
	<path style="clip-path:url(#SVGID_00000095340481926236770780000009519945793899955087_);fill:#BDBAD7;" d="M123.63,203.56
		c-0.16,0.9,0.07,1.61,0.19,1.94c0.36,1,1.4,2.73,2.96,2.75c1.69,0.01,2.75-2.02,3.08-3.15c0.12-0.39,0.75-2.55-0.6-3.83
		c-1.07-1-2.57-0.75-2.77-0.7C124.93,200.86,123.87,202.24,123.63,203.56"/>
	<path style="clip-path:url(#SVGID_00000095340481926236770780000009519945793899955087_);fill:#F47B5E;" d="M128.7,232.75
		c1.34-1.34,1.75-3.09,1.24-5.07c-0.87-3.45-2.9-6.23-4.93-9.02c-2.66-3.66-5.26-7.26-6.98-11.54c-1.7-4.21-0.64-7.69,1.3-11.22
		c2-3.63,4.03-7.23,5.26-11.2c0.52-1.65,0.84-3.49,0.16-5.08c-0.97-2.27-3.06-2.88-5.43-2.57h-0.2c-3.15,0.78-5.74,2.6-8.01,4.74
		c-6.76,6.35-12.13,13.67-15.15,22.54c-1.85,5.46-1.88,11.06-0.95,16.68c0.2,1.16,0.76,2.32,1.37,3.33
		c1.34,2.26,4.25,2.98,7.45,2.21c1.98-0.48,3.94-1.07,6.08-0.86c3.39,0.32,5.8,2.42,8.43,4.17c1.87,1.24,3.61,2.65,5.69,3.56
		C125.78,234.2,127.43,234.04,128.7,232.75"/>
	<path style="clip-path:url(#SVGID_00000095340481926236770780000009519945793899955087_);fill:#F47B5E;" d="M141.31,214.34h-0.2
		c-1.71,0.3-3.01,1.29-4.11,2.56c-0.92,1.05-1.38,2.24-1.43,3.71c-0.1,2.69,0.49,5.36,0.07,8.06c-0.76,4.72-2.76,8.59-6.89,11.19
		c-0.96,0.6-1.86,1.28-2.75,1.96c-3.33,2.53-3.03,4.77-0.57,7.43c4.1,4.41,11.38,2.22,13.54-3.89c0.92-2.62,1.35-5.37,1.85-8.07
		c0.6-3.21,2.1-5.73,4.23-8.02c1.13-1.23,2.38-2.34,3.52-3.55c2.03-2.14,2.68-4.79,0.02-7.86
		C146.63,215.6,144.34,214.26,141.31,214.34"/>
	<path style="clip-path:url(#SVGID_00000095340481926236770780000009519945793899955087_);fill:#F47B5E;" d="M164.16,218.06
		c-0.2-0.04-2.48-0.43-3.64,1.17c-0.86,1.18-0.48,2.62-0.46,2.71c0.12,0.44,0.34,0.85,0.67,1.23c0.85,0.97,2.74,2.03,4.51,1.17
		c1.31-0.63,2.32-2.17,1.96-3.73C166.78,218.59,164.39,218.09,164.16,218.06"/>
	<path style="clip-path:url(#SVGID_00000095340481926236770780000009519945793899955087_);fill:#F47B5E;" d="M215.53,259.66
		c4.41,1.98,8.68,0.69,9.92-3.93c0.16-0.59,1.68-5.13-1-8.09c-1.15-1.28-2.64-1.74-3.23-1.92c-0.69-0.2-2.2-0.64-3.95-0.13
		c-2.43,0.73-3.63,2.8-4.13,3.66c-1.07,1.86-1.14,3.56-1.17,3.95C211.77,256.01,212.98,258.51,215.53,259.66"/>
	<path style="clip-path:url(#SVGID_00000095340481926236770780000009519945793899955087_);fill:#BDBAD7;" d="M16.63,219.44
		c-2.29-0.05-3.87,1.41-4.33,1.84c-0.36,0.34-1.39,1.45-1.92,3.08c-1,3.06,1.09,6.87,4.1,7.84c3.39,1.1,6.48-1.97,7.46-4.51
		c0.26-0.67,0.8-2.45,0.05-4.4C21.16,221.15,19.02,219.49,16.63,219.44"/>
	<path style="clip-path:url(#SVGID_00000095340481926236770780000009519945793899955087_);fill:#F47B5E;" d="M45.1,180.75
		c-1.85-0.12-3.67,0.09-5.28,0.84c-5.52,2.59-13.69,0.68-14.35,0.54c-6.88-1.55-11.61-5.26-11.61-5.26s-3.7-2.9-6.66-2.59
		c-0.32,0.04-0.77,0.13-1.05,0.48c-0.68,0.89,0.31,2.83,1.19,3.96c1.3,1.68,2.99,2.38,3.31,2.51c4.66,1.98,5.46,5.1,15.43,11.27
		c0,0,3.66,3.52,10.37,4.2c1.32,0.14,2.64,0.33,3.93-0.04c1.63-0.46,1.81-1.02,0.78-2.34c-0.68-0.87-1.45-1.69-2.14-2.56
		c-1.02-1.28-0.78-2.11,0.79-2.74c1.31-0.54,2.74-0.52,4.12-0.74c0.98-0.16,1.88-0.41,2.74-0.84c1.53-0.75,2.51-2.43,2.17-3.72
		C48.34,181.87,46.95,180.86,45.1,180.75"/>
	<path style="clip-path:url(#SVGID_00000095340481926236770780000009519945793899955087_);fill:#F47B5E;" d="M57.68,217.82
		c-1.17-0.44-2.29-0.65-3.37-0.66c-4.15-0.09-7.12,2.22-7.99,2.92c-0.69,0.54-5.51,4.5-5.33,10.94c0.02,1.3,0.32,4.63,2.75,7.65
		c2.77,3.42,7.63,5.6,12.4,4.49c2.54-0.6,4.99-2.14,7.04-4.87C68.05,231.8,66.18,221.01,57.68,217.82 M54.92,226.5
		c-0.93,1.88-3.05,2.64-4.91,1.77c-0.26-0.12-1.62-0.71-2.17-2.2c-0.62-1.66,0.14-3.55,1.39-4.48c0.19-0.15,1.08-0.81,2.29-0.74
		c0.07,0,0.65,0.04,1.24,0.33C54.3,221.96,55.94,224.46,54.92,226.5"/>
	<path style="clip-path:url(#SVGID_00000095340481926236770780000009519945793899955087_);fill:#F47B5E;" d="M152.21,319.34
		c-0.54-3.52-0.32-7.18,0.43-10.8c0.6-2.89,1-5.85,1.3-8.81c0.52-5.26-2.71-9.19-7.13-10.64c-6.59-2.17-13.11-1.15-19.64,0.05
		c-6.68,1.25-13.27,2.86-20.03,3.73c-9.56,1.25-18.46,0.22-26.35-6.06c-4.6-3.66-7.95-8.22-11.16-13.01
		c-4.51-6.7-9.45-13.05-16.08-17.87c-4.35-3.18-8.34-5.04-10.19-5.84c-5.3-2.29-9.65-3.12-10.84-3.34
		c-6.79-1.22-12.01-0.61-13.34-0.44c-0.71,0.1-2.81,0.37-5.52,1.1c-1.41,0.37-8.24,2.19-16.08,7.53
		c-8.31,5.68-15.37,12.6-20.58,21.23c-5.76,9.59-10.37,19.65-11.65,30.99c-0.97,8.54-0.35,16.84,3.22,24.71
		c2.17,4.8,5.57,8.75,9.56,12.21c7.4,6.41,16.22,9.09,25.73,10.22c9.79,1.15,19.64,0.95,29.44,0.66c9.68-0.28,19.1-2.42,28.3-5.56
		c7.04-2.41,14.03-5.04,21.2-7.08c4.74-1.37,9.52-2.61,14.52-2.57c3.18,0.02,6.19,0.81,9.02,2.19c3.46,1.66,6.78,3.6,10.24,5.25
		c3.77,1.8,7.71,3.14,11.96,3.15c2.34,0.01,4.58-0.76,6.86-1.21c3.38-0.66,6.81-0.75,10.22-1.12c4.62-0.49,8.25-2.54,10.36-6.71
		c1.25-2.49,0.68-5.31-0.03-7.81C154.61,328.81,152.96,324.16,152.21,319.34 M-7.94,341.32c-0.79,0.78-1.69,1.4-2.38,2.35
		c-1.08,1.46-3.19,1.37-4.46,0.02c-0.71-0.77-1.09-1.71-1.41-2.73c-0.67-2.12-0.65-4.61-2.73-6.07c-1.52-1.08-3.01-2.18-4.69-2.96
		c-1.15-0.53-2.16-1.18-3.04-1.95c-2.43-2.11-3.52-4.75-4.01-6.11c-1.42-3.94-0.96-7.27-0.29-12.1c0.28-1.95,1.32-5.38,3.44-12.23
		c1-3.29,1.96-6.4,3.5-6.49c0.82-0.04,1.55,0.75,1.66,0.86c1.15,1.25,0.94,3.17,0.86,3.85c-0.54,5.23-0.3,11.88-0.21,13.14
		c0.42,6.68,2.71,12.46,7.1,17.5c2.02,2.32,4.56,4.11,6.47,6.49C-5.76,337.89-5.76,339.17-7.94,341.32 M-17.07,302.08
		c-0.28-8.75,2.01-17.09,6.27-24.7c4.89-8.73,12.14-15.13,21.37-19.01c5.4-2.26,11.09-3.71,17.06-3.61
		c4.51,0.07,8.82,1.14,12.93,2.81c6.52,2.65,11.03,7.15,11.99,14.48v0.2c-0.02,2.98-1.73,4.96-4.15,6.22
		c-1.44,0.75-3.05,1.26-4.67,1.65c-2.6,0.66-5.26,0.96-7.86,1.54c-2.41,0.54-4.71,1.3-6.48,3.15c-1.62,1.71-1.85,3.6-0.58,5.49
		c1.55,2.33,3.95,3.43,6.47,4.32c5.22,1.86,10.69,2.58,16.11,3.5c5.78,0.98,11.62,1.79,17.24,3.44c4.64,1.37,9.18,3.23,12.18,7.4
		c2.13,2.96,1.33,6.06-1.15,7.87c-4.28,3.14-8.95,3.84-13.94,2.5c-3.64-0.98-6.95-2.84-10.41-4.29c-4.71-1.97-9.41-2.83-14.35-0.63
		c-2.88,1.29-5.51,2.93-8.02,4.76c-4.21,3.04-8.24,6.37-12.96,8.63c-6.39,3.05-12.98,4.06-19.62,1.14
		C-11.25,323.82-16.69,314.42-17.07,302.08 M81.6,334.08c-0.59,0.7-1.33,1.27-2.12,1.79c-5.57,3.75-12,5.28-18.3,6.97
		c-7.63,2.05-15.29,4.03-23.13,5.26c-4.9,0.76-9.79,1.33-14.75,1.49c-3.99,0.13-7.99,0.01-11.96-0.43c-2.61-0.28-5.21-0.8-7.47-2.32
		c-2.87-1.91-2.9-5.04,0.01-6.86c1.24-0.78,2.61-1.23,4.11-1.41c3.66-0.43,7.34-0.2,11-0.31c6.2-0.18,11.38-2.38,15.48-6.96
		c3.53-3.95,7.22-7.54,12.59-8.81h0.19c3.79-0.47,7.08,0.67,10.23,2.72c4.42,2.88,9.18,3.38,14.12,1.4c2.92-1.18,5.94-0.97,8.6,0.28
		C83.96,328.67,83.97,331.27,81.6,334.08 M83.5,299.61c-0.31,0.31-0.87,0.34-1.66,0.06c-1.17-0.42-2.4-0.59-3.57-1.08
		c-6.64-2.74-13.59-4.43-20.59-5.95c-3.28-0.71-6.64-1.19-9.82-2.34c-1.66-0.61-3.72-1.38-3.61-3.33c0.12-1.98,2.21-2.68,4-3.14
		c7.11-1.81,12.84-1.68,15.11-1.09c2.23,0.58,4.75,1.26,5.3,3.04c0.45,1.43-0.66,2.65,0.19,3.98c0.29,0.45,1.06,0.87,2.58,1.7
		c0.85,0.46,1.49,0.82,2.65,1.32c1.52,0.65,3.07,1.21,4.59,1.85c0.98,0.42,2.03,0.71,3.25,1.49c0.64,0.41,1.13,0.79,1.45,1.41
		C83.68,298.12,83.96,299.16,83.5,299.61 M125.55,343.66c-0.68,0.83-1.71,0.46-2.71,0.09c-3.05-1.12-6.07-2.22-9.4-2.5
		c-2.43-0.2-4.92-0.79-7.1-2.23c-1.43-0.95-2.26-2.16-2.39-3.47c-0.16-1.54,0.73-2.73,1.41-3.64c2.81-3.76,7.47-4.09,7.87-4.11
		c0.98-0.05,2.58-0.15,4.23,0.74c0.81,0.44,1.41,1,3.18,3.6c0.76,1.11,1.31,5,4.53,8.64C125.88,341.57,126.27,342.78,125.55,343.66
		 M146.03,332.71c-1.3,4.59-4.46,8.45-11.2,6.88c-4.41-1.03-7.6-3.5-9.43-7.66c-1.27-2.89-1.3-6.03-1.97-9.04
		c-0.78-3.51-2.3-5.3-5.48-5.07c-1.36,0.09-2.65,0.49-3.95,1.09c-3.49,1.59-6.68,3.67-10,5.54c-3.3,1.85-6.54,3.82-10.59,3.57
		c-2.58-0.16-4.34-1.46-4.92-3.96c-0.41-1.79-0.28-3.6,0.23-5.29c2.19-7.16,7.2-11.67,13.9-14.54c4.88-2.08,3.93-0.96,17.09-5.1
		c2.57-0.8,7.87-2.51,13.54-2.55c0.62,0,2.53,0,4.92,0.58c2.46,0.59,4.61,1.11,6.03,2.83c0.86,1.06,1.72,2.75,1.62,6.22
		c-0.06,2.33,0.29,4.59,0.73,6.88c0.39,2.03,0.97,4.02,1.26,6.07C148.45,323.86,147.29,328.27,146.03,332.71"/>
	<path style="clip-path:url(#SVGID_00000095340481926236770780000009519945793899955087_);fill:#F47B5E;" d="M153.47,119.91
		c0.1-0.27,0.53-1.48-0.11-2.73c-0.5-0.98-1.58-1.81-2.84-1.78c-1.6,0.05-2.6,1.53-2.94,2.55c-0.57,1.73,0.06,4.18,1.77,4.72
		C151.06,123.19,152.92,121.52,153.47,119.91"/>
	<path style="clip-path:url(#SVGID_00000095340481926236770780000009519945793899955087_);fill:#F47B5E;" d="M150.35,164.68
		c-1.16,1.9-1.8,3.98-1.4,6.27c0.32,1.75,2.07,3.05,3.73,2.74c8.2-1.47,15.61,0.09,22.01,5.69c2.59,2.26,5.32,4.36,8.04,6.48
		c1.43,1.1,3.02,2.13,4.88,1.15c1.66-0.87,0.97-4.44,0.82-5.27c-0.51-2.9-2.11-6.25-8.06-11.39c-3.03-2.6-7.68-6.11-14.15-9.21
		c-1.33-0.64-3.5-1.48-6.27-1.64c-1.43-0.09-2.86-0.19-4.52,0.46C153.31,160.77,151.7,162.47,150.35,164.68"/>
	<path style="clip-path:url(#SVGID_00000095340481926236770780000009519945793899955087_);fill:#BDBAD7;" d="M-36.39,144.06
		c0.9,2.18,1.95,4.16,4.32,5.12c2.02,0.8,3.37,0.47,4.93-1.18c1.47-1.57,2.42-3.52,3.23-5.36c3.74-8.44,8.76-16.16,13.05-24.3
		c4.77-9.08,9.24-18.3,11.99-28.26c1.17-4.25,2.17-8.6,2.04-12.95c-0.21-7.1-1.59-13.96-6.13-19.87c-4.12-5.35-9.56-7.22-15.94-6.79
		c-6.76,0.45-11.3,3.46-12.97,4.64c-1.92,1.38-4.95,3.58-5.27,6.89c-0.04,0.37-0.03,0.62-0.02,0.98c0.12,4.65-0.68,8.04-0.95,11.37
		c-0.27,3.37,0.54,4.95,0.57,9.24c0,6.74-0.1,13.49,0.19,20.22c0.32,7.42-0.64,14.79-0.74,22.18
		C-38.18,132.06-38.8,138.21-36.39,144.06 M-15.77,117.75c-1.74,6.11-5.09,11.18-10.42,14.68c-3.34,2.19-5.21,0.66-6.03-2.71
		c-0.27-1.08-0.07-1.97,0-2.35c0.51-2.71,4.41-15.85,11.94-16.89c0.69-0.09,2.25-0.28,3.41,0.64c1.49,1.17,1.53,3.47,1.53,4.08
		C-15.32,116.4-15.66,117.32-15.77,117.75 M-32.2,99.7c0.32-1.69,1.07-3.31,1.73-4.91c1.78-4.36,2.88-8.76,2.01-13.56
		c-0.39-2.17-0.84-4.31-1.28-6.46c-0.68-3.32-0.34-6.33,0.85-8.88c0.5-1.09,1.93-3.83,5.08-5.67c1.9-1.1,3.68-1.45,4.72-1.57
		c3.58-0.42,6.29,0.89,7.17,1.33c2.96,1.47,4.49,3.65,5.41,4.94c0.52,0.75,2.46,3.62,3.07,7.86c0.19,1.22,0.23,2.46,0.16,3.72
		c-0.25,4.14-1.52,8.12-3.2,12c-3.91,8.95-9.84,15.32-19.87,17.32C-30.86,106.74-32.79,102.76-32.2,99.7 M-33.02,109.91
		c0.28-0.36,0.96-1.22,2.14-1.39c0.95-0.13,1.7,0.25,1.96,0.39c1.03,0.83,1.48,2.14,1.16,3.3c-0.39,1.39-1.72,1.91-1.95,2.01
		c-0.81,0.34-3.35-0.16-3.72-0.79c-0.27-0.47-0.39-0.93-0.42-1.38C-33.88,110.99-33.29,110.25-33.02,109.91"/>
	<path style="clip-path:url(#SVGID_00000095340481926236770780000009519945793899955087_);fill:#F47B5E;" d="M229.24,167.98
		c2.58-3.08,2.03-7.97-0.53-10.02c-3.7-2.94-10.59,0.81-11.6,4.16c-0.16,0.55-0.2,1.23-0.21,1.38c-0.12,2,0.62,4.07,1.73,5.25
		C220.94,171.19,226.4,171.37,229.24,167.98"/>
	<path style="clip-path:url(#SVGID_00000095340481926236770780000009519945793899955087_);fill:#F47B5E;" d="M-29.31-6.7
		c-7.44,11.54-6.37,26.55,3.32,36.33c4.32,4.36,9.61,7.05,15.14,9.39c5.35,2.26,10.95,3.94,15.9,7.08c3.72,2.37,6.84,5.23,8.26,9.61
		c1.01,3.08,0.78,6.24,0.1,9.21c-1.34,5.97-3.38,11.83-4.14,17.89c-0.91,7.17-0.91,14.41,0.47,21.6c1.06,5.48,2.69,10.78,5.35,15.68
		c5.97,11.07,14.47,19.38,26.47,23.8c4.23,1.55,8.49,2.6,12.96,3.15c11.64,1.45,22.1-1.94,32-7.54c5.91-3.35,11.28-7.49,15.53-12.91
		c3.47-4.42,5.57-9.38,6.5-14.93c1.19-7.12,0.42-14.28,0.79-21.39c0.69-12.62,3.99-24.38,12.77-33.93
		c4.67-5.08,10.64-8.23,17.23-10.26c7.42-2.29,15.13-3.37,22.58-5.48c11.22-3.19,22.02-7.31,31.62-14.13
		c8.49-6.04,14.49-14.08,17.35-23.98c2.86-9.89-0.42-19.39-8.5-26.29c-6.81-5.83-14.15-7.8-21.21-9.44
		c-4.68-1.11-8.45-1.44-10.41-1.6c-6.47-0.54-11.39-0.14-17.28,0.36c-6,0.52-10.64,1.17-14.14,1.85c-4.76,0.91-9.54,1.78-14.31,2.64
		c-3.94,0.69-7.86,1.45-11.8,1.79c-5.37,0.46-10.61,1.5-15.89,2.35c-6.48,1.01-12.95,2.04-19.46,2.78
		c-4.09,0.47-8.22,0.87-12.37,0.89c-6.73,0-13.5,0.23-20.21-0.47c-5.49-0.57-11-1.01-16.51-1.44c-4.04-0.32-8.11-0.58-12.16-0.64
		c-3.62-0.05-7.19-0.37-10.8-0.48c-6.87-0.2-13.23,1.33-19.25,4.57C-19.79-17.23-25.35-12.87-29.31-6.7 M31.37,124.04
		c-1.12,1.85-2.19,2.33-3.93,1.36c-3.83-2.14-6.66-5.01-8.14-9.39c-2.38-7.03-2.7-14.2-2.02-21.41c0.81-8.45,2.41-16.77,4.8-24.96
		c1.77-6.1,0.98-11.86-3.05-17.1c-1.92-2.48-3.92-4.84-6.15-7.02c-1.37-1.32-2.51-2.82-3.31-4.52c-1.78-3.77-0.82-8.66,4.3-9.61h0.2
		c3.22-0.04,6.42,0.05,9.62,0.75c4.63,1.01,8.59,2.89,11.2,7.09c3.02,4.84,6.01,9.72,9.34,14.38c3.84,5.4,4.01,11.29,1.31,17.45
		c-2.14,4.9-5.64,8.71-9.14,12.49c-5.75,6.24-7.39,13.5-6.23,21.64c0.58,4.01,1.46,7.98,2.07,11.98
		C32.6,119.43,32.68,121.87,31.37,124.04 M82.4,133.06c-0.19,1.75-1.97,2.86-3.34,2.96c-1.89,0.12-2.78-0.54-3.74-2.55
		c-0.25-0.52-0.37-1.01-0.28-1.61c0.21-1.35,1.62-2.29,2.85-2.52c0.6-0.11,1.07-0.04,1.17-0.02
		C80.6,129.56,82.63,131.07,82.4,133.06 M136.44,38.83c-0.41,1.1-1.58,1.65-2.56,2.41c-2.22,1.71-4.95,2.13-7.32,3.46
		c-5.25,2.91-9.51,6.92-13.12,11.63c-4.85,6.31-8.49,13.28-10.61,21c-2.28,8.28-2.72,16.86-3.95,25.32c-0.26,1.77-0.73,3.5-1.58,5.1
		c-0.39,0.75-0.89,1.56-1.94,1.37c-1.03-0.2-1.54-0.97-1.56-1.95c-0.05-2.23-0.27-4.49,0.03-6.67c0.64-4.57,1.06-9.14,1.15-13.75
		c0.06-2.88,0.36-5.75,0.57-8.63c0.48-6.72,1.84-13.23,4.52-19.44c1.52-3.51,4.72-11.07,12.15-17.68c0.33-0.3,7.38-6.44,14.94-7.45
		c0.96-0.13,3.48-0.37,6.07,0.82c0.77,0.36,3.1,1.45,3.33,3.31C136.63,38.22,136.5,38.68,136.44,38.83 M149.59,39.37
		c-0.43,0.81-1.24,1.42-2.57,2.05c-1.71,0.81-4.72-1.24-4.31-3.36c0.13-0.68,0.38-1.21,0.68-1.64c0.2-0.29,1.42-2.01,3.41-1.9
		c1.07,0.06,2.23,0.65,2.8,1.66c0.33,0.61,0.35,1.23,0.35,1.48C149.96,37.84,149.99,38.59,149.59,39.37 M149.56-19.87h0.19
		c7.35-0.01,14.68-0.04,22,1.13c4.94,0.8,9.83,1.59,14.32,3.97c7.08,3.76,10.5,10.15,8.1,18.67c-1.58,5.58-4.62,10.16-8.27,14.53
		c-7.76,9.29-17.98,12.9-29.67,13.34c-9.18,0.33-18.13-2.07-27.29-2.22c-4.64-0.07-9.21,0.22-13.53,1.86
		c-12.12,4.58-19.1,13.94-23.36,25.69c-2.38,6.57-3.17,13.5-3.49,20.41c-0.3,6.29-0.48,12.58-1.21,18.84
		c-0.53,4.57-1.57,8.95-3.39,13.14c-2.82,6.46-7.55,11.26-13.34,15.12c-6.45,4.3-13.32,6.69-21.21,4.74
		c-8.15-2.04-12.92-7.86-13.51-16.12c-0.49-7.16,1.68-13.7,5.27-19.82c3.81-6.51,9.41-11.51,14.35-17.07
		c3.66-4.12,6.26-8.84,8.23-13.94c2.78-7.31,4.03-15.02,5.9-22.58c2.14-8.7,5.27-17.01,10.21-24.53
		c4.11-6.26,9.57-11.22,15.49-15.73c3.72-2.83,7.62-5.36,11.67-7.56c2.17-1.18,8.72-4.66,18-7.5
		C130.98-17.34,139.32-19.3,149.56-19.87 M61.98,21.37c-1.18-1.25-1.52-4.21,0-6.88c1.23-2.16,3.17-3.31,5.51-3.92h0.19
		c3.28-0.51,6.43,2.35,5.86,5.48c-0.53,2.87-2.25,5.01-4.89,6.26C66.09,23.53,63.56,23.05,61.98,21.37 M83.19-17.11
		c2.42-0.34,4.83-0.7,7.27-0.97c3.28-0.35,6.32-1.64,9.4-2.62c2.91-0.93,5.92-1.17,8.86-1.9h0.19c1.84,0,3.67,0.01,5.51-0.01
		c0.99,0,2.13-0.06,2.5,1.01c0.32,0.97-0.37,1.88-1.14,2.52c-0.68,0.57-1.38,1.11-2.13,1.6c-5.19,3.36-10.89,5.75-16.54,8.14
		C89.26-6.04,81.4-2.8,73.78,0.97c-6.39,3.16-12.76,6.36-17.7,11.74c-2.55,2.77-3.09,5.07-1.33,8.25c1.57,2.83,3.53,5.43,5.04,8.28
		c1.93,3.65,3.44,7.45,2.61,11.76c-0.98,5.15-6.16,8.18-11.01,4.72c-4.82-3.46-8.33-8-11.23-13.13c-2.09-3.71-4.2-7.48-7.63-10.22
		c-1.81-1.45-3.81-2.19-6.27-1.82c-2.76,0.42-5.24,1.62-7.84,2.42c-3.82,1.16-6.8-0.9-6.87-4.93c-0.07-4.18,1.84-7.46,4.67-10.42
		c3.32-3.48,7.12-5.68,12-5.67c3.04,0,5.57,1.42,8.06,2.93c2.08,1.28,4.12,2.57,6.68,2.77c4.81,0.37,8.48-1.93,11.32-5.38
		c3.07-3.72,6.2-7.39,9.69-10.73C69.34-13.62,75.94-16.09,83.19-17.11 M-8.49-4.35c0.55-2.84,2.07-5.12,4.32-6.86
		c7.78-5.99,16.77-6.94,26.1-5.83c4.76,0.55,9.38,2.1,14.14,2.9c3.64,0.61,7.17,0.63,10.82-0.16c3.09-0.67,6.03-1.94,9.21-2.23
		l0.2-0.19c2.35,0.43,2.85,1.37,1.55,3.32c-2.24,3.39-4.85,6.51-8.07,9c-2.75,2.14-6.23,2.75-9.58,2.5c-3.69-0.29-7.31-1.46-11-2.03
		c-3.87-0.59-7.74-0.58-11.6,0.51c-3.39,0.98-6.43,2.69-9.61,4.15C4.7,2.26,1.29,3.6-2.41,3.26C-6.14,2.93-9.56,0.97-8.49-4.35
		 M-20.28-5.92c4.74,0.05,6.73,2.41,6.12,7.06c-0.14,1.14-0.39,2.24-0.64,3.33c-0.73,3.06-2.08,5.97-1.97,9.24
		c0.07,2.35,0.99,4.16,2.99,5.26c1.86,1.02,3.71,0.61,5.49-0.53c2.66-1.72,4.42-4.26,6.24-6.7c1.64-2.19,3.35-4.18,6.11-4.9
		C5.14,6.57,6.3,6.21,7.19,7.23c0.89,1.01,0.43,2.12-0.01,3.13c-0.42,0.96-0.95,1.89-1.56,2.74c-1.19,1.69-1.22,3.43-0.6,5.32
		c0.39,1.25,0.99,2.39,1.61,3.52c1.44,2.67,1.31,3.94-0.81,6.09c-0.98,0.98-1.86,2.07-2.76,3.12c-2.73,3.16-4.66,4.16-9.58,2.53
		c-6-1.97-10.93-5.77-15.3-10.19c-4.52-4.57-7.02-10.03-6.74-16.65c0.25-5.91,3.2-10.82,8.08-12.76H-20.28z"/>
	<path style="clip-path:url(#SVGID_00000095340481926236770780000009519945793899955087_);fill:#BDBAD7;" d="M57.86,115.39
		c-2.56,0.16-3.97,2.75-4.16,3.12c-0.29,0.55-0.78,1.52-0.63,2.72c0.23,2.12,2.21,3.77,4.4,3.97c0.43,0.04,2.14,0.3,3.71-0.84
		c0.11-0.09,1.91-1.44,1.98-3.66C63.26,117.93,60.61,115.21,57.86,115.39"/>
	<path style="clip-path:url(#SVGID_00000095340481926236770780000009519945793899955087_);fill:#BDBAD7;" d="M80.25,43.34
		c-0.9-0.82-1.8-0.78-2.54,0.02c-2.13,2.32-3.42,4.88-3.46,8.23c-0.03,3.29-1.18,6.49-2.25,9.62c-1.62,4.8-3.95,9.27-6.28,13.74
		v0.19c-2.92,5.54-6.83,10.38-10.64,15.29c-3.96,5.11-7.04,10.64-8.56,16.92c-0.62,2.54-1.69,5.11-0.65,7.84
		c0.76,2.02,1.92,2.39,3.54,0.97c1.64-1.44,2.9-3.24,4.32-4.9c1.25-1.44,2.38-3.01,3.77-4.29c1.33-1.24,2.67-0.82,3.7,0.75
		c0.69,1.05,0.86,2.28,1.54,3.36c1.77,2.84,4.66,3.39,7.1,1.15c2.92-2.7,4.12-6.32,5.09-10.01c0.91-3.47,0.95-7.03,1-10.59
		c0.13-8.83,1.53-17.46,4.1-25.93c1.66-5.47,2.77-11.09,2.35-16.87C82.22,46.85,81.89,44.83,80.25,43.34"/>
	<path style="clip-path:url(#SVGID_00000095340481926236770780000009519945793899955087_);fill:#BDBAD7;" d="M84.74,30.59
		c-0.78,2.27-1.43,4.4,0.78,6.32c0.74,0.64,1.58,0.64,2.38,0.95h0.19c3.79-0.6,6.69-2.89,9.61-5.1c4.25-3.22,8.32-6.66,12.76-9.63
		c5.48-3.68,11.46-5.7,18.07-6.11c5.83-0.35,11.55,0.2,17.28,1.18c3.42,0.58,6.89,1.14,10.39,0.81c8.88-0.83,15.79-4.66,19.86-12.94
		c1.63-3.31,2.24-6.9,3.08-10.42c0.57-2.34-0.66-4.82-2.92-5.85c-6.21-2.82-12.31-2.44-18.24,0.95c-3.24,1.85-5.91,4.39-8.43,7.07
		c-2.48,2.62-5.49,3.87-9.04,3.5c-3.66-0.39-7.15-1.7-9.97-3.96c-4.02-3.23-8.07-1.66-11.04,1.06c-3,2.72-5.56,5.85-8.03,9.04
		c-3.86,5-9.05,7.91-14.7,10.49C91.24,20.47,86.81,24.5,84.74,30.59 M159.75-3.97c0.54-0.68,2.36-2.98,5.31-3.13
		c2.39-0.14,4.2,1.22,4.71,1.58c0.39,0.3,1.1,0.82,1.69,1.72c1.82,2.76,0.6,6.2,0.55,6.35c-1.08,3.54-5.68,5.68-8.51,5.06
		c-2.86-0.64-4.75-2.32-5.49-4.39C156.77-0.23,159.17-3.25,159.75-3.97 M149.16,7.82h1.17c1.91,0.01,3.21,1.09,3.34,2.75
		c0.14,1.59-1.3,3.1-3.14,3.33c-1.85,0.23-3.57-0.85-3.69-2.55C146.73,9.71,147.63,8.5,149.16,7.82"/>
	<path style="clip-path:url(#SVGID_00000095340481926236770780000009519945793899955087_);fill:#BDBAD7;" d="M50.01,27.06h-0.2
		c-2.48,1.47-3.24,3.71-1.95,5.69c1.03,1.59,2.19,2.02,3.54,1.39c2.08-0.97,2.68-3.03,2.3-4.72C53.34,27.74,52.09,27.06,50.01,27.06
		"/>
	<path style="clip-path:url(#SVGID_00000095340481926236770780000009519945793899955087_);fill:#F47B5E;" d="M145.01,87.84
		c1.35-0.44,2.16-0.58,3.36-0.3c0.86,0.19,1.26,0.54,1.41,0.69c0.64,0.63,0.71,1.49,0.76,1.85c0.25,2.62-2.45,5.41-3.33,10.01
		c-0.06,0.33-0.52,2.52,0.15,4.82c0.16,0.57,0.39,1.13,0.73,1.71c1.73,3.14,5.74,2.6,7.38-0.63c2.83-5.61,4.99-11.41,5.91-17.68
		c0.52-3.61,0.64-7.19-1.1-10.37c-2.11-3.84-5.58-6.27-10.14-5.86c-4.93,0.45-8.82,2.89-10.55,7.8c-0.5,1.4-1.18,2.86-0.66,4.5
		C139.97,87.69,141.77,88.88,145.01,87.84"/>
	<path style="clip-path:url(#SVGID_00000095340481926236770780000009519945793899955087_);fill:#F47B5E;" d="M207.06,56.27
		c1.5-0.49,2.26-1.78,2.57-3.3c0.11-0.59,0.26-1.56-0.28-2.29c-1.22-1.62-5.26-1.06-6.59,0.92c-0.13,0.18-0.58,0.85-0.54,1.75
		c0.04,1,0.67,1.7,0.92,1.98C204.24,56.56,205.65,56.72,207.06,56.27"/>
	<path style="clip-path:url(#SVGID_00000095340481926236770780000009519945793899955087_);fill:#BDBAD7;" d="M367.02,205.86
		c0.82-1.72,0.71-1.37,1.05-2.12c0.53-1.22,4.65-10.97-0.05-20.78c-1.64-3.42-3.67-5.44-4.11-5.86c-2.6-2.53-5.9-4.24-9.77-5.17
		c-7.6-1.84-14.77-0.35-21.8,2.55c-6.75,2.8-13.25,6.17-20.21,8.48c-5.2,1.74-10.45,3-15.92,3.33c-8.01,0.48-15.62-1.48-23.15-3.78
		c-7.27-2.21-14.19-5.33-21-8.65c-4.09-1.99-8.3-3.65-12.79-3.79c-5.14-0.15-9.63,1.82-12.55,6.39c-2.09,3.29-3.22,6.87-3.61,10.79
		c-0.21,2.23-0.45,4.46-0.31,6.68c0.3,4.28,0.9,8.54,1.73,12.76c1.16,5.91,2.55,11.77,3.81,17.65c1.69,7.8,1.94,15.66,2.1,23.57
		c0.16,7.67,0.52,15.33,2.56,22.77c2.22,8.08,5.79,15.44,11.34,21.83c4.95,5.71,10.65,10.42,17.1,14.32
		c5.8,3.5,12.13,5.57,18.66,7.03c4.51,1.01,9.13,1.6,13.74,1.54c10.87-0.14,21.32-2.41,31.22-7c7.72-3.57,14.97-7.93,20.97-14
		c6.39-6.45,10.1-14.37,11.86-23.3c1.18-6,1.79-12,1.48-18.07c-0.25-4.83-0.8-9.67-0.73-14.53c0.14-8.92,2.03-15.75,2.87-18.66
		C363.35,213.56,365.86,208.28,367.02,205.86 M352.54,180.96c1.18-2.16,3.99-3.13,5.9-1.96c1.14,0.7,1.86,1.55,2.16,2.51
		c0.6,1.92-0.43,3.54-0.73,4c-0.19,0.29-1.5,2.34-3.58,2.33c-0.71,0-1.25-0.25-1.57-0.39c-1.55-0.74-2.81-2.44-2.76-4.34
		C351.98,182.4,352.16,181.67,352.54,180.96 M342.94,177.63c0.23-0.2,0.48-0.29,0.78-0.39c0.37-0.13,0.91-0.32,1.47-0.18
		c0.69,0.15,1.15,0.79,1.46,1.37c0.39,0.74-0.57,2.73-1.57,3.1c-0.44,0.15-0.83,0.17-1.19,0.07c-0.89-0.23-1.27-1.06-1.34-1.22
		C342.11,179.45,342.25,178.22,342.94,177.63 M296.8,190.98c0.7-0.61,1.43-0.76,1.58-0.79c0.07-0.01,1.81-0.31,2.87,0.9
		c0.51,0.58,0.63,1.25,0.66,1.46c0.23,1.57-0.71,3-2.36,3.53c-1.64,0.53-3.16-0.06-3.93-1.57
		C294.95,193.2,295.98,191.69,296.8,190.98 M308.02,196.92c6.13-3.43,9.7-4.75,16.65-7.71c2.78-1.18,7.31-3.07,13.36-3.33
		c5.03-0.22,6.79,0.86,7.27,1.17c4.94,3.25,4.16,11.4,4.12,11.78c-0.57,5.2-3.61,8.86-7.84,13.56c-2.86,3.16-6.09,5.96-8.66,9.4
		c-2.22,2.98-3.86,6.16-3.51,10.02c0.27,2.99,1.61,5.62,2.96,8.24c2.02,3.94,4.18,7.8,5.68,11.98c2.01,5.6,2.71,11.42,0.89,17.05
		c-2.49,7.7-7.62,13.52-14.84,17.27c-3.79,1.96-7.87,3.06-12.15,3.65c-3.98,0.53-7.94,0.55-11.77-0.17
		c-6.7-1.28-13.02-3.86-18.86-7.38c-12.88-7.79-23.87-17.49-31.03-31.01c-2.18-4.12-3.79-8.49-3.86-13.16
		c-0.1-5.87,1.49-11.35,5.45-15.88c1.85-2.11,4.2-3.49,7.05-3.96c3.33-0.55,6.7-0.85,10.02-1.52c3.68-0.74,7.27-1.53,10.62-3.35
		c2.64-1.45,5.05-3.24,7.65-4.73C294.14,204.89,301.03,200.81,308.02,196.92 M234.02,196.67c0.19-3.86,1.11-6.8,3.66-9.07
		c2.84-2.51,6.8-2.84,7.68-2.91c1.84-0.15,3.26,0.07,4.12,0.22c5.64,1.01,9.39,2.84,14.12,4.53c6.64,2.37,9.99,3.35,13.56,3.96
		c2.87,0.5,5.87,1,8.27,3.05c2.28,1.94,2.4,2.71,0.17,4.7c-1.96,1.76-4.26,3.09-6.45,4.55c-5.67,3.73-11.26,5.22-17.95,1.9
		c-5.03-2.49-7.86-2.09-12.09,2.82c-1.43,1.66-2.66,3.5-3.93,5.29c-0.71,0.99-1.53,1.73-2.76,1.96c-2.24,0.45-4.19-0.84-5.49-3.73
		C234.43,208.44,233.73,202.61,234.02,196.67 M240.71,257.17c-0.94,0.53-1.11,1.78-1.81,2.53c-1.29,1.38-2.02,1.34-2.74-0.42
		c-0.45-1.12-0.78-2.33-0.98-3.53c-0.54-3.31-0.62-6.64-0.47-10.01c0.19-4.58,0.15-9.18,0.64-13.73c0.27-2.45,0.93-4.75,2.77-6.48
		c1.65-1.54,3.77-0.95,4.71,1.16c0.39,0.9,0.57,1.78,0.59,2.75c0.09,3.09-0.68,6.07-1.43,9.03c-0.86,3.46-0.58,6.66,1,9.83
		c0.97,1.93,2.33,3.56,3.55,5.3c0.93,1.31,1,2.45,0.66,3.4c-0.04,0.13-0.42,1.19-1.27,1.4c-0.23,0.06-0.46,0.04-0.96-0.1
		c-1.75-0.53-2.22-1.43-3.34-1.39C241.15,256.93,240.79,257.12,240.71,257.17 M324.29,299.15c-4.33,3.88-9.12,7.03-14.53,9.22
		c-4.03,1.62-8.24,2.61-12.57,2.5c-4.68-0.13-9.14-1.49-13.55-3.06c-6.32-2.26-12.46-4.93-18.22-8.32
		c-6.23-3.65-11.49-8.6-16.27-13.93c-2.74-3.06-4.64-6.53-4.95-10.43c-0.07-0.87-0.19-2.69,0.42-4.82c0.39-1.42,1.44-5.16,4.43-6.1
		c1.42-0.46,2.73-0.09,3.07,0.02c1.58,0.5,2.46,1.64,3.01,2.38c1.03,1.37,1.41,2.7,1.5,3.01c0.93,3.16,4.52,9.85,8.4,13.8
		c5.12,5.24,11.79,6.64,13.77,7.2c3.46,1.01,7.11,1.53,10.94,1.53c2.09,0,4.24,0.01,6.28,0.73c0.41,0.15,1.26,0.29,1.65,0.96
		c0.3,0.53,0.29,1.26,0.01,1.82c-0.43,0.86-1.17,0.7-2.26,1.93c-0.65,0.72-0.66,1.08-0.64,1.25c0.04,0.42,0.36,0.8,0.86,1.08
		c1.05,0.59,2.23,0.64,3.52,0.48c4.62-0.59,8.95-2.16,13.36-3.54c3.29-1.03,6.66-1.98,10.19-1.59c1.05,0.11,2.29,0.1,2.73,1.35
		C325.82,297.71,325.06,298.45,324.29,299.15 M337.24,295.8c-0.54,1.34-1.91,2.85-3.53,2.73c-1.76-0.12-2.48-1.19-2.81-2.92
		c-0.05-0.27-0.16-0.99,0.04-1.86c0.3-1.26,1.43-3.47,3.35-3.45c1.69,0.02,2.92,1.75,3.21,3.2
		C337.72,294.6,337.38,295.46,337.24,295.8 M352.53,270.28c-0.97,5.2-2.76,10.04-6.24,14.15c-1.6,1.88-3.22,3.63-5.71,4.32
		c-0.95,0.27-1.74,0.18-2.32-0.21c-0.81-0.55-0.96-1.58-1.05-2.16c-0.32-2.29,0.86-4.27,1.42-5.09c2.07-3.02,3.77-2.12,5.45-4.58
		c1.65-2.41,0.25-3.6,2.36-7.43c0.47-0.85,1.75-3,3.55-3.33c0.27-0.04,0.97-0.17,1.56,0.21c0.2,0.14,0.54,0.44,0.81,1.35
		C352.77,268.89,352.57,270.1,352.53,270.28 M359.79,201.37c-1.9,7.3-4.59,14.35-7.17,21.43c-1.91,5.27-3.31,10.77-3.18,16.46
		c0.13,6.02,1.24,11.93,2.17,17.86c0.1,0.59,0.58,2.25-0.15,2.8c-0.5,0.38-1.49,0.13-2.09-0.37c-0.76-0.63-0.84-1.62-0.95-2.02
		c-0.52-1.98-1.23-3.92-1.73-5.9c-1.1-4.31-3.68-7.85-5.91-11.58c-4.16-6.94-2.76-14.89,2.76-19.62c3.23-2.76,6.38-5.59,8.02-9.63
		c0.95-2.35,0.53-1.71,4.97-12.54c0,0,2.32-5.64,3.49-5.32c0.04,0.01,0.32,0.1,0.52,0.34c0.28,0.33,0.29,0.76,0.29,1.02
		C360.61,199.56,359.79,201.37,359.79,201.37"/>
	<path style="clip-path:url(#SVGID_00000095340481926236770780000009519945793899955087_);fill:#F47B5E;" d="M242.2,203.17
		c2.03,1.47,4.02,0.71,5.87-0.1c1.05-0.47,2.05-1.29,3.02-2.04c1.6-1.24,3.31-2.24,5.44-2.71c1.78-0.41,3.17,0.21,4.73,0.5
		c1.47,0.28,2.9,0.7,4.33,1.15c0.75,0.23,1.42-0.06,1.97-0.74c0.62-0.75-0.01-1.37-0.26-1.76c-0.39-0.61-0.84-1.15-1.36-1.62
		c-1.55-1.44-4.1-2.14-4.1-2.14c-7.27-2.11-9.23-2.51-10.79-2.8c-2.5-0.46-3.74-0.6-5.31-0.33c-1.15,0.19-2.65,0.46-4.02,1.64
		c-1.97,1.7-2.28,4.06-2.39,4.64C238.89,199.44,240.03,201.58,242.2,203.17"/>
	<path style="clip-path:url(#SVGID_00000095340481926236770780000009519945793899955087_);fill:#F47B5E;" d="M180.12,219.39
		c-0.16,0.01-3.29,0.42-4.65,3.07c-0.18,0.34-0.63,1.34-0.59,2.67c0.07,2.86,2.86,5.83,5.89,6.28c2.45,0.37,4.55-0.39,5.8-1.89
		c0.26-0.3,1.43-1.76,1.28-3.8c-0.12-1.69-1.07-2.77-1.65-3.46C185.62,221.6,183.39,219.03,180.12,219.39"/>
	<path style="clip-path:url(#SVGID_00000095340481926236770780000009519945793899955087_);fill:#F47B5E;" d="M259.81,225.16
		c-0.04-0.16-0.39-1.37-1.49-1.75c-0.52-0.17-0.98-0.1-1.18-0.05c-1.02,0.21-1.59,1.04-1.77,1.3c-0.28,0.39-0.39,0.75-0.43,0.84
		c-0.43,1.35,0.05,2.33,1.06,2.91c0.91,0.54,2.02,0.35,2.91-0.35C259.81,227.35,260.08,226.14,259.81,225.16"/>
	<path style="clip-path:url(#SVGID_00000095340481926236770780000009519945793899955087_);fill:#F47B5E;" d="M191.37,72.4
		c1.32,0.14,2.59-0.07,3.73-0.78c1.79-1.12,3.41-2.42,4.74-4.11c0.67-0.86,1.07-1.89,0.68-2.74c-0.43-0.95-1.42-1.59-2.68-1.41
		c-0.32,0.05-0.65,0.01-0.97,0.01h-0.2c-3.3,0.89-5.81,2.8-7.23,5.9C188.65,70.99,189.5,72.21,191.37,72.4"/>
	<path style="clip-path:url(#SVGID_00000095340481926236770780000009519945793899955087_);fill:#F47B5E;" d="M224.14,33.28
		c1.85-0.78,3.61-1.82,5.3-2.9c1.31-0.83,2.73-1.41,4.15-1.91c2.19-0.78,4.17-0.5,6.12,1.09c1.73,1.41,3.42,2.93,5.45,3.98
		c3.35,1.74,6.07,0.68,7.51-2.53c0.51-1.13,4.51-8.54,0.29-14.93c-0.39-0.61-3.1-4.6-7.8-5.31c-0.69-0.12-1.61-0.17-2.94,0
		c-4.76,0.6-8.23,3.32-12.38,6.67c0,0-5.52,3.68-9.22,10.41c-0.22,0.43-0.47,0.85-0.62,1.37c-0.39,1.41-0.21,2.64,0.81,3.73
		C221.83,34.04,223.12,33.7,224.14,33.28"/>
	<path style="clip-path:url(#SVGID_00000095340481926236770780000009519945793899955087_);fill:#BDBAD7;" d="M228.46,111.5
		c-3.51-0.81-7.07-1.21-10.59,0.16c-6.02,2.33-9.4,9.28-6.23,15.68c1.43,2.9,3.23,3.68,6.42,1.79c0.64-0.38,1.22-0.87,1.79-1.36
		c1.86-1.59,3.89-2.88,6.45-2.97h0.2c2.61,0.39,5.23,0.94,7.85,1.13c2.46,0.19,4.76-0.6,5.69-2.3c0.89-1.63,0.32-4.72-1.17-6.48
		C236.16,113.91,232.42,112.41,228.46,111.5"/>
	<path style="clip-path:url(#SVGID_00000095340481926236770780000009519945793899955087_);fill:#F47B5E;" d="M250.88,123.13
		c-0.3,0.02-1.94,0.17-2.57,1.48c-0.58,1.22,0.11,2.58,0.79,3.28c0.15,0.16,0.47,0.45,0.98,0.66c1.27,0.52,2.85-0.07,3.72-1.38
		c0.67-0.99,0.53-2.08-0.04-2.91C252.87,122.97,251.08,123.11,250.88,123.13"/>
	<path style="clip-path:url(#SVGID_00000095340481926236770780000009519945793899955087_);fill:#BDBAD7;" d="M257.71,116.35
		c1.9-1.54,3.2-3.71,3.45-6.07c0.26-2.37-0.94-4.47-3.04-5.88c-1.31-0.89-2.7-1.45-4.32-1.38h-0.19c-2.58,0.71-5.21,1.33-6.87,3.72
		c-2.41,3.46-1.31,7.66,1.02,9.77C250.63,119.12,254.27,119.15,257.71,116.35"/>
	<path style="clip-path:url(#SVGID_00000095340481926236770780000009519945793899955087_);fill:#BDBAD7;" d="M258.71,135.42h-0.19
		c-2.51,1.05-3,1.78-2.96,4.13c0.03,1.87,1.21,2.75,2.76,3.33c1.62,0.61,3.41-0.44,3.72-2.16
		C262.56,137.97,261.46,136.24,258.71,135.42"/>
	<path style="clip-path:url(#SVGID_00000095340481926236770780000009519945793899955087_);fill:#F47B5E;" d="M394.32,94.98
		c-0.09-10.38-2.54-20.23-8.23-29.03c-2.66-4.1-6.56-6.79-11.15-8.47c-4.48-1.64-8.94-3.31-12.77-6.27c-2.6-2-4.53-4.59-6.24-7.29
		c-2.91-4.62-6.22-8.84-10.23-12.55c-3.73-3.45-8.06-5.75-12.98-6.81c-1.62-0.35-3.39-0.06-5.1-0.06h-0.19
		c-3.16,0.69-6.03,2.05-8.63,3.94c-4.75,3.44-7.88,8.22-10.8,13.16c-5.93,10.01-11.94,19.98-18.48,29.63
		c-4.5,6.66-10.17,12.13-17.07,16.29c-2.46,1.49-5.25,2.16-8.04,2.52c-4.14,0.52-8.19,1.48-12.37,1.85
		c-5.51,0.49-10.99,0.46-16.49-0.01c-4.9-0.43-9.86-0.97-14.71-0.33c-10.75,1.4-22.09,7.68-25.55,19.93
		c-1.18,4.19-1.74,8.35-1.24,12.77c0.62,5.63,2.43,10.7,5.6,15.29c5.01,7.26,12.02,11.28,20.78,12.17c4.9,0.5,9.83,0.27,14.73,0.17
		c8.11-0.17,15.27,2.17,21.62,7.28c4.42,3.54,9.1,6.69,14.68,8.31c4.4,1.27,8.82,1.91,13.36,2.41c3.85,0.43,7.62,0,11.39-0.15
		c4.76-0.21,9.5-0.96,14.13-1.98c6.98-1.54,13.87-3.44,20.63-5.78c12-4.17,23.5-9.39,33.73-16.98
		c11.09-8.23,19.69-18.63,25.38-31.34C392.76,107.68,394.37,101.47,394.32,94.98 M271.26,153.08c-2.61,3.9-7.32,4.48-11.36,1.37
		c-3.68-2.83-5.89-6.8-8.06-10.78c-1.82-3.32-3.32-6.83-5.7-9.82c-1.61-2.03-3.44-3.7-6.28-3.53h-0.19
		c-1.89-0.23-3.55,0.46-5.1,1.39c-2,1.22-3.81,2.73-5.72,4.09c-5.87,4.16-12.41,5.11-18.05,0.62c-5.26-4.19-8.23-9.47-8.03-16.3
		c0.07-2.56,0.86-4.98,1.97-7.26c3.72-7.6,9.56-12.19,19.24-9.47c3.23,0.9,6.72,1.13,9.98,0.34c4.21-1,8.43-2.14,12.6-3.39
		c4.97-1.5,9.98-2.89,15.3-2.86c4.65,0.03,6.8,3.08,6.29,7.72c-0.45,4.25-2.26,8.1-3.32,12.17c-1.46,5.69-1.53,11.36,0.93,16.88
		c1.57,3.52,3.66,6.75,5.27,10.23C272.31,147.22,273.16,150.22,271.26,153.08 M282.66,85.55c1.38-1.31,3-1.89,4.69-1.12
		c1.81,0.81,3.21,2.17,2.97,4.47l0.2,0.19c-0.02,1.77-1.1,2.96-2.37,3.9c-2.41,1.77-5.87,1.26-7.26-0.96
		C279.68,90.08,280.35,87.74,282.66,85.55 M368.13,131.33c-0.41,0.58-0.75,1.21-1.24,1.74c-3.28,3.62-7.27,6.32-11.39,8.81
		c-7.12,4.3-14.81,7.36-22.59,10.18c-10.46,3.8-20.89,7.85-32.19,8.46c-4.56,0.23-9.1,0-13.55-1.32c-1.33-0.39-2.27-1.04-2.52-2.38
		c-0.27-1.43,0.64-2.3,1.75-2.93c0.99-0.57,2.03-1.06,3.14-1.4c5.73-1.75,10.74-4.48,14.59-9.37c2.62-3.32,4.81-6.92,7.39-10.25
		c2.28-2.97,4.42-6.1,7.87-7.82c1.81-0.9,3.8-1.15,5.68-0.02c1.28,0.77,2.4,1.71,3.37,2.91c1.85,2.27,3.21,4.94,5.47,6.88
		c1.46,1.27,2.38,1.02,3.55-0.55c1.1-1.49,1.81-3.17,2.69-4.75c0.5-0.92,0.99-1.4,1.76-1.84c0.2-0.12,1.88-1.07,3.6-0.47
		c1.16,0.41,1.05,1.08,2.74,2.09c0.63,0.38,1.57,0.94,2.74,1.02c1.36,0.1,2.41-0.47,2.94-0.78c3.07-1.75,6.17-3.4,9.81-3.8
		c1.81-0.2,3.84,0.09,4.69,1.43C369.31,128.58,369.1,129.93,368.13,131.33 M375.16,105.98c-1.6,5.09-4.89,8.72-9.46,11.16
		c-6.91,3.68-14.1,4.91-21.58,1.58c-2.97-1.32-5.54-3.32-8.24-5.1c-2.7-1.77-5.53-3.13-8.84-3.14h-0.19c-0.73,0.01-1.44,0-2.17,0.19
		c-3.17,0.85-5.72,2.69-8.04,4.92c-6.64,6.35-11.31,14.3-17.28,21.18c-4.02,4.63-8.72,7.7-15.31,6.73c-4.4-0.65-8.32-4.31-9.41-9.07
		c-1.4-6.13-0.06-11.89,2.53-17.48c3.92-8.46,10.04-15.33,15.94-22.35c4.2-5.01,8.1-10.24,11.36-15.92
		c3.16-5.49,5.85-11.26,9.45-16.48c1.89-2.75,3.97-5.38,6.44-7.67c4.23-3.94,9.15-4.36,14.54-3.36c5.75,1.07,10.37,3.81,14.16,8.25
		c3.19,3.73,5.59,8.06,9,11.61c5.65,5.91,10.65,12.33,14.69,19.45C375.48,95.29,376.91,100.38,375.16,105.98 M378.68,76.73
		c-0.79,1.02-1.77,1.7-2.89,1.91c-0.13,0.02-0.7,0.13-1.43,0.01c-2.86-0.46-5.48-3.9-5.9-7.43c-0.06-0.49-0.11-0.96,0-1.57
		c0.42-2.46,2.92-4.8,5.49-4.68c1.01,0.04,1.75,0.47,2.49,0.91c1.52,0.89,2.64,2.29,3.36,3.99
		C380.83,72.28,380.3,74.63,378.68,76.73 M388.09,90.66c-0.12,1.88-1.32,3.15-3.53,3.73l-0.2,0.19c-2.65-0.8-4-4.76-2.58-6.89
		c1.11-1.66,2.19-2.36,3.57-1.75C387.25,86.8,388.23,88.47,388.09,90.66"/>
</g>
</svg>
